<svg width="368" height="50" viewBox="0 0 368 50" fill="none" xmlns="http://www.w3.org/2000/svg">
<path d="M21.64 39L19.912 31.848H10.216L8.53598 39H0.375977L10.408 5.73602H19.96L29.992 39H21.64ZM11.56 26.136H18.568L15.064 11.448L11.56 26.136Z" fill="#141414"/>
<path d="M60.4645 12.696C62.4805 12.696 64.0965 13.384 65.3125 14.76C66.5285 16.104 67.1365 17.976 67.1365 20.376V39H59.5525V21.672C59.5525 19.4 58.8325 18.264 57.3925 18.264C56.5925 18.264 55.8885 18.536 55.2805 19.08C54.6725 19.624 54.0805 20.456 53.5045 21.576V39H45.9205V21.672C45.9205 19.4 45.2005 18.264 43.7605 18.264C42.9925 18.264 42.2885 18.552 41.6485 19.128C41.0405 19.672 40.4485 20.488 39.8725 21.576V39H32.2885V13.512H38.9125L39.4405 16.488C40.4325 15.208 41.5205 14.264 42.7045 13.656C43.9205 13.016 45.2965 12.696 46.8325 12.696C48.2725 12.696 49.5045 13.048 50.5285 13.752C51.5845 14.456 52.3525 15.448 52.8325 16.728C53.8565 15.352 54.9765 14.344 56.1925 13.704C57.4405 13.032 58.8645 12.696 60.4645 12.696Z" fill="#141414"/>
<path d="M93.0914 31.608C93.0914 32.568 93.2193 33.272 93.4753 33.72C93.7634 34.168 94.2114 34.504 94.8194 34.728L93.2354 39.672C91.6674 39.544 90.3874 39.208 89.3954 38.664C88.4034 38.088 87.6354 37.192 87.0914 35.976C85.4274 38.536 82.8674 39.816 79.4114 39.816C76.8834 39.816 74.8673 39.08 73.3633 37.608C71.8593 36.136 71.1074 34.216 71.1074 31.848C71.1074 29.064 72.1314 26.936 74.1794 25.464C76.2274 23.992 79.1873 23.256 83.0593 23.256H85.6514V22.152C85.6514 20.648 85.3314 19.624 84.6914 19.08C84.0514 18.504 82.9314 18.216 81.3314 18.216C80.4994 18.216 79.4914 18.344 78.3074 18.6C77.1234 18.824 75.9074 19.144 74.6594 19.56L72.9314 14.568C74.5314 13.96 76.1634 13.496 77.8274 13.176C79.5234 12.856 81.0913 12.696 82.5313 12.696C86.1793 12.696 88.8514 13.448 90.5474 14.952C92.2434 16.456 93.0914 18.712 93.0914 21.72V31.608ZM81.6194 34.392C83.3474 34.392 84.6914 33.576 85.6514 31.944V27.432H83.7794C82.0514 27.432 80.7554 27.736 79.8913 28.344C79.0594 28.952 78.6433 29.896 78.6433 31.176C78.6433 32.2 78.8994 33 79.4114 33.576C79.9554 34.12 80.6914 34.392 81.6194 34.392Z" fill="#141414"/>
<path d="M114.06 12.696C116.268 12.696 117.996 13.368 119.244 14.712C120.492 16.056 121.116 17.944 121.116 20.376V39H113.532V21.672C113.532 20.392 113.324 19.512 112.908 19.032C112.524 18.52 111.932 18.264 111.132 18.264C109.596 18.264 108.124 19.368 106.716 21.576V39H99.1322V13.512H105.756L106.284 16.536C107.372 15.256 108.54 14.296 109.788 13.656C111.068 13.016 112.492 12.696 114.06 12.696Z" fill="#141414"/>
<path d="M149.683 3.38402V39H142.963L142.579 36.024C140.787 38.552 138.371 39.816 135.331 39.816C132.163 39.816 129.747 38.6 128.083 36.168C126.451 33.736 125.635 30.408 125.635 26.184C125.635 23.592 126.067 21.272 126.931 19.224C127.795 17.176 129.011 15.576 130.579 14.424C132.179 13.272 134.003 12.696 136.051 12.696C138.483 12.696 140.499 13.496 142.099 15.096V2.56802L149.683 3.38402ZM137.683 34.248C139.443 34.248 140.915 33.288 142.099 31.368V20.376C141.491 19.64 140.867 19.096 140.227 18.744C139.619 18.392 138.915 18.216 138.115 18.216C136.707 18.216 135.587 18.872 134.755 20.184C133.923 21.496 133.507 23.512 133.507 26.232C133.507 29.208 133.859 31.288 134.563 32.472C135.299 33.656 136.339 34.248 137.683 34.248Z" fill="#141414"/>
<path d="M175.873 31.608C175.873 32.568 176.001 33.272 176.257 33.72C176.545 34.168 176.993 34.504 177.601 34.728L176.017 39.672C174.449 39.544 173.169 39.208 172.177 38.664C171.185 38.088 170.417 37.192 169.873 35.976C168.209 38.536 165.649 39.816 162.193 39.816C159.665 39.816 157.649 39.08 156.145 37.608C154.641 36.136 153.889 34.216 153.889 31.848C153.889 29.064 154.913 26.936 156.961 25.464C159.009 23.992 161.969 23.256 165.841 23.256H168.433V22.152C168.433 20.648 168.113 19.624 167.473 19.08C166.833 18.504 165.713 18.216 164.113 18.216C163.281 18.216 162.273 18.344 161.089 18.6C159.905 18.824 158.689 19.144 157.441 19.56L155.713 14.568C157.313 13.96 158.945 13.496 160.609 13.176C162.305 12.856 163.873 12.696 165.313 12.696C168.961 12.696 171.633 13.448 173.329 14.952C175.025 16.456 175.873 18.712 175.873 21.72V31.608ZM164.401 34.392C166.129 34.392 167.473 33.576 168.433 31.944V27.432H166.561C164.833 27.432 163.537 27.736 162.673 28.344C161.841 28.952 161.425 29.896 161.425 31.176C161.425 32.2 161.681 33 162.193 33.576C162.737 34.12 163.473 34.392 164.401 34.392Z" fill="#141414"/>
<path d="M204.152 4.92002C206.648 4.92002 208.808 5.27202 210.632 5.97602C212.488 6.68002 214.168 7.75202 215.672 9.19202L212.024 13.464C209.752 11.608 207.32 10.68 204.728 10.68C203.352 10.68 202.264 10.968 201.464 11.544C200.664 12.088 200.264 12.888 200.264 13.944C200.264 14.68 200.44 15.288 200.792 15.768C201.144 16.216 201.768 16.648 202.664 17.064C203.56 17.48 204.904 17.976 206.696 18.552C210.088 19.64 212.584 20.984 214.184 22.584C215.784 24.152 216.584 26.392 216.584 29.304C216.584 31.384 216.056 33.224 215 34.824C213.944 36.392 212.424 37.624 210.44 38.52C208.456 39.384 206.104 39.816 203.384 39.816C200.664 39.816 198.248 39.384 196.136 38.52C194.056 37.656 192.264 36.504 190.76 35.064L194.744 30.696C196.024 31.784 197.336 32.6 198.68 33.144C200.056 33.688 201.544 33.96 203.144 33.96C204.776 33.96 206.056 33.608 206.984 32.904C207.944 32.168 208.424 31.16 208.424 29.88C208.424 29.048 208.248 28.36 207.896 27.816C207.544 27.24 206.936 26.728 206.072 26.28C205.208 25.832 203.96 25.352 202.328 24.84C198.648 23.72 196.024 22.344 194.456 20.712C192.92 19.08 192.152 17.016 192.152 14.52C192.152 12.6 192.664 10.92 193.688 9.48002C194.712 8.00802 196.136 6.88802 197.96 6.12002C199.784 5.32002 201.848 4.92002 204.152 4.92002Z" fill="#141414"/>
<path d="M235.173 12.696C238.373 12.696 240.757 13.88 242.325 16.248C243.893 18.616 244.677 21.928 244.677 26.184C244.677 28.808 244.261 31.16 243.429 33.24C242.629 35.288 241.461 36.904 239.925 38.088C238.389 39.24 236.597 39.816 234.549 39.816C231.989 39.816 229.925 38.936 228.357 37.176V48.84L220.773 49.656V13.512H227.445L227.829 16.344C228.821 15.096 229.957 14.184 231.237 13.608C232.517 13 233.829 12.696 235.173 12.696ZM232.245 34.248C235.285 34.248 236.805 31.592 236.805 26.28C236.805 23.272 236.469 21.192 235.797 20.04C235.125 18.856 234.117 18.264 232.773 18.264C231.909 18.264 231.093 18.52 230.325 19.032C229.589 19.544 228.933 20.28 228.357 21.24V31.992C229.381 33.496 230.677 34.248 232.245 34.248Z" fill="#141414"/>
<path d="M256.997 13.512V39H249.413V13.512H256.997ZM253.157 0.0720215C254.469 0.0720215 255.541 0.488022 256.373 1.32002C257.237 2.12002 257.669 3.14402 257.669 4.39202C257.669 5.64002 257.237 6.68002 256.373 7.51202C255.541 8.31202 254.469 8.71202 253.157 8.71202C251.845 8.71202 250.773 8.31202 249.941 7.51202C249.109 6.68002 248.693 5.64002 248.693 4.39202C248.693 3.14402 249.109 2.12002 249.941 1.32002C250.773 0.488022 251.845 0.0720215 253.157 0.0720215Z" fill="#141414"/>
<path d="M277.888 12.696C280.096 12.696 281.824 13.368 283.072 14.712C284.32 16.056 284.944 17.944 284.944 20.376V39H277.36V21.672C277.36 20.392 277.152 19.512 276.736 19.032C276.352 18.52 275.76 18.264 274.96 18.264C273.424 18.264 271.952 19.368 270.544 21.576V39H262.96V13.512H269.584L270.112 16.536C271.2 15.256 272.368 14.296 273.616 13.656C274.896 13.016 276.32 12.696 277.888 12.696Z" fill="#141414"/>
<path d="M312.887 25.752C312.887 26.808 312.839 27.72 312.743 28.488H296.951C297.207 30.632 297.815 32.136 298.775 33C299.735 33.864 301.063 34.296 302.759 34.296C303.783 34.296 304.775 34.12 305.735 33.768C306.695 33.384 307.735 32.808 308.855 32.04L311.975 36.264C308.999 38.632 305.687 39.816 302.039 39.816C297.911 39.816 294.743 38.6 292.535 36.168C290.327 33.736 289.223 30.472 289.223 26.376C289.223 23.784 289.687 21.464 290.615 19.416C291.543 17.336 292.903 15.704 294.695 14.52C296.487 13.304 298.631 12.696 301.127 12.696C304.807 12.696 307.687 13.848 309.767 16.152C311.847 18.456 312.887 21.656 312.887 25.752ZM305.447 23.592C305.383 19.688 304.007 17.736 301.319 17.736C300.007 17.736 298.983 18.216 298.247 19.176C297.543 20.136 297.111 21.72 296.951 23.928H305.447V23.592Z" fill="#141414"/>
<path d="M323.916 39.816C321.708 39.816 319.98 39.192 318.732 37.944C317.516 36.664 316.908 34.856 316.908 32.52V3.38402L324.492 2.56802V32.232C324.492 33.288 324.924 33.816 325.788 33.816C326.236 33.816 326.652 33.736 327.036 33.576L328.524 38.952C327.148 39.528 325.612 39.816 323.916 39.816Z" fill="#141414"/>
<path d="M338.166 39.816C335.958 39.816 334.23 39.192 332.982 37.944C331.766 36.664 331.158 34.856 331.158 32.52V3.38402L338.742 2.56802V32.232C338.742 33.288 339.174 33.816 340.038 33.816C340.486 33.816 340.902 33.736 341.286 33.576L342.774 38.952C341.398 39.528 339.862 39.816 338.166 39.816Z" fill="#141414"/>
<path d="M365.669 31.608C365.669 32.568 365.797 33.272 366.053 33.72C366.341 34.168 366.789 34.504 367.397 34.728L365.813 39.672C364.245 39.544 362.965 39.208 361.973 38.664C360.981 38.088 360.213 37.192 359.669 35.976C358.005 38.536 355.445 39.816 351.989 39.816C349.461 39.816 347.445 39.08 345.941 37.608C344.437 36.136 343.685 34.216 343.685 31.848C343.685 29.064 344.709 26.936 346.757 25.464C348.805 23.992 351.765 23.256 355.637 23.256H358.229V22.152C358.229 20.648 357.909 19.624 357.269 19.08C356.629 18.504 355.509 18.216 353.909 18.216C353.077 18.216 352.069 18.344 350.885 18.6C349.701 18.824 348.485 19.144 347.237 19.56L345.509 14.568C347.109 13.96 348.741 13.496 350.405 13.176C352.101 12.856 353.669 12.696 355.109 12.696C358.757 12.696 361.429 13.448 363.125 14.952C364.821 16.456 365.669 18.712 365.669 21.72V31.608ZM354.197 34.392C355.925 34.392 357.269 33.576 358.229 31.944V27.432H356.357C354.629 27.432 353.333 27.736 352.469 28.344C351.637 28.952 351.221 29.896 351.221 31.176C351.221 32.2 351.477 33 351.989 33.576C352.533 34.12 353.269 34.392 354.197 34.392Z" fill="#141414"/>
</svg>
