<svg width="30" height="30" viewBox="0 0 30 30" fill="none" xmlns="http://www.w3.org/2000/svg">
<path d="M17.5 11C17.5 10.8851 17.5419 10.767 17.6257 10.6457C17.7096 10.5244 17.8031 10.4446 17.9062 10.4062C18.5312 10.1771 19.1702 10 19.823 9.875C20.4758 9.75 21.1624 9.6875 21.8827 9.6875C22.333 9.6875 22.7776 9.71354 23.2166 9.76562C23.6555 9.81771 24.0833 9.89583 24.5 10C24.625 10.0417 24.7396 10.1187 24.8437 10.2311C24.9479 10.3435 25 10.47 25 10.6105C25 10.8493 24.9219 11.0312 24.7656 11.1562C24.6094 11.2812 24.4167 11.3125 24.1875 11.25C23.8375 11.1458 23.4687 11.0677 23.0812 11.0156C22.6937 10.9635 22.2917 10.9375 21.875 10.9375C21.2708 10.9375 20.6875 10.9948 20.125 11.1094C19.5625 11.224 19.0104 11.3958 18.4687 11.625C18.1771 11.7292 17.9427 11.724 17.7656 11.6094C17.5885 11.4948 17.5 11.2917 17.5 11ZM17.5 17.875C17.5 17.754 17.5419 17.6297 17.6257 17.502C17.7096 17.3743 17.8031 17.2903 17.9062 17.25C18.5312 17.0208 19.1702 16.849 19.823 16.7344C20.4758 16.6198 21.1624 16.5625 21.8827 16.5625C22.333 16.5625 22.7776 16.5885 23.2166 16.6406C23.6555 16.6927 24.0833 16.7708 24.5 16.875C24.625 16.9167 24.7396 16.9937 24.8437 17.1061C24.9479 17.2185 25 17.345 25 17.4855C25 17.7243 24.9219 17.9062 24.7656 18.0312C24.6094 18.1562 24.4167 18.1875 24.1875 18.125C23.8375 18.0208 23.4687 17.9427 23.0812 17.8906C22.6937 17.8385 22.2917 17.8125 21.875 17.8125C21.2708 17.8125 20.6875 17.8646 20.125 17.9688C19.5625 18.0729 19.0104 18.2396 18.4687 18.4688C18.1771 18.5729 17.9427 18.5729 17.7656 18.4688C17.5885 18.3646 17.5 18.1667 17.5 17.875ZM17.5 14.4375C17.5 14.3226 17.5419 14.2045 17.6257 14.0832C17.7096 13.9619 17.8031 13.8821 17.9062 13.8438C18.5312 13.6146 19.1702 13.4375 19.823 13.3125C20.4758 13.1875 21.1624 13.125 21.8827 13.125C22.333 13.125 22.7776 13.151 23.2166 13.2031C23.6555 13.2552 24.0833 13.3333 24.5 13.4375C24.625 13.4792 24.7396 13.5562 24.8437 13.6686C24.9479 13.781 25 13.9075 25 14.048C25 14.2868 24.9219 14.4688 24.7656 14.5938C24.6094 14.7188 24.4167 14.75 24.1875 14.6875C23.8375 14.5833 23.4687 14.5052 23.0812 14.4531C22.6937 14.401 22.2917 14.375 21.875 14.375C21.2708 14.375 20.6875 14.4323 20.125 14.5469C19.5625 14.6615 19.0104 14.8333 18.4687 15.0625C18.1771 15.1667 17.9427 15.1615 17.7656 15.0469C17.5885 14.9323 17.5 14.7292 17.5 14.4375ZM7.75 20.625C8.86596 20.625 9.95224 20.7552 11.0088 21.0156C12.0654 21.276 13.1042 21.6667 14.125 22.1875V8.84375C13.1875 8.21875 12.1706 7.73438 11.0744 7.39062C9.9782 7.04688 8.87006 6.875 7.75 6.875C6.95833 6.875 6.18229 6.97396 5.42187 7.17188C4.66146 7.36979 3.89583 7.61458 3.125 7.90625V21.4688C3.77083 21.1771 4.50521 20.9635 5.32812 20.8281C6.15104 20.6927 6.95833 20.625 7.75 20.625ZM16 22.1875C17.0417 21.6667 18.0625 21.276 19.0625 21.0156C20.0625 20.7552 21.125 20.625 22.25 20.625C23.0417 20.625 23.8594 20.6875 24.7031 20.8125C25.5469 20.9375 26.2708 21.1042 26.875 21.3125V7.90625C26.1667 7.55208 25.4185 7.29167 24.6306 7.125C23.8426 6.95833 23.0491 6.875 22.25 6.875C21.125 6.875 20.0365 7.04688 18.9844 7.39062C17.9323 7.73438 16.9375 8.21875 16 8.84375V22.1875ZM15.0625 24.6562C14.9055 24.6562 14.7568 24.6406 14.6166 24.6094C14.4764 24.5781 14.3542 24.5208 14.25 24.4375C13.2708 23.8333 12.2308 23.3646 11.1298 23.0312C10.0288 22.6979 8.90219 22.5312 7.75 22.5312C6.98881 22.5312 6.24123 22.625 5.50725 22.8125C4.77325 23 4.04167 23.2292 3.3125 23.5C2.83125 23.7292 2.36719 23.6979 1.92031 23.4062C1.47344 23.1146 1.25 22.6979 1.25 22.1562V7.6875C1.25 7.375 1.32292 7.08854 1.46875 6.82812C1.61458 6.56771 1.83333 6.36458 2.125 6.21875C3 5.80208 3.91036 5.49479 4.85609 5.29688C5.8018 5.09896 6.76644 5 7.75 5C9.0625 5 10.3385 5.17708 11.5781 5.53125C12.8177 5.88542 13.9792 6.42708 15.0625 7.15625C16.125 6.42708 17.2656 5.88542 18.4844 5.53125C19.7031 5.17708 20.9583 5 22.25 5C23.2264 5 24.1841 5.09896 25.1229 5.29688C26.0618 5.49479 26.9687 5.80208 27.8437 6.21875C28.1354 6.36458 28.3594 6.56771 28.5156 6.82812C28.6719 7.08854 28.75 7.375 28.75 7.6875V22.1562C28.75 22.7374 28.5156 23.1795 28.0469 23.4827C27.5781 23.7859 27.1146 23.7917 26.6562 23.5C25.9479 23.2083 25.2267 22.974 24.4927 22.7969C23.7588 22.6198 23.0112 22.5312 22.25 22.5312C21.1193 22.5312 20.0137 22.6979 18.9332 23.0312C17.8527 23.3646 16.8333 23.8333 15.875 24.4375C15.7708 24.5208 15.6486 24.5781 15.5084 24.6094C15.3682 24.6406 15.2195 24.6562 15.0625 24.6562Z" fill="url(#paint0_linear_204_3)"/>
<defs>
<linearGradient id="paint0_linear_204_3" x1="15" y1="5" x2="15" y2="24.6562" gradientUnits="userSpaceOnUse">
<stop stop-color="#FC808F" stop-opacity="0.96"/>
<stop offset="1" stop-color="#ED494A"/>
</linearGradient>
</defs>
</svg>
